<svg xmlns="http://www.w3.org/2000/svg" viewBox="0 0 128 128" role="img" aria-label="ECG module">
  <defs>
    <linearGradient id="bg" x1="0" y1="0" x2="1" y2="1">
      <stop offset="0" stop-color="#123f63"/>
      <stop offset="1" stop-color="#062846"/>
    </linearGradient>
    <linearGradient id="heart" x1="0" y1="0" x2="0" y2="1">
      <stop offset="0" stop-color="#b9f3dc"/>
      <stop offset="0.48" stop-color="#57cfb2"/>
      <stop offset="1" stop-color="#169a91"/>
    </linearGradient>
    <filter id="shadow" x="-30%" y="-30%" width="160%" height="170%">
      <feDropShadow dx="0" dy="5" stdDeviation="5" flood-color="#00182a" flood-opacity=".34"/>
    </filter>
  </defs>
  <rect x="3" y="3" width="122" height="122" rx="28" fill="url(#bg)"/>
  <rect x="8" y="8" width="112" height="112" rx="23" fill="none" stroke="#28b8bd" stroke-opacity=".48" stroke-width="2"/>
  <path filter="url(#shadow)" fill="url(#heart)" d="M64 105C53 96 24 77 24 49c0-15 11-26 26-26 7 0 13 3 18 9 5-6 11-9 18-9 15 0 26 11 26 26 0 28-29 47-48 56z"/>
  <path d="M27 65h21l6-9 8 22 9-39 10 50 9-29 6 10h18" fill="none" stroke="#fff" stroke-width="7" stroke-linecap="round" stroke-linejoin="round"/>
</svg>
